<?xml version="1.0" standalone="no"?>
<!DOCTYPE svg PUBLIC "-//W3C//DTD SVG 20010904//EN"
 "http://www.w3.org/TR/2001/REC-SVG-20010904/DTD/svg10.dtd">
<svg version="1.0" xmlns="http://www.w3.org/2000/svg"
 width="1156.000000pt" height="156.000000pt" viewBox="0 0 1156.000000 156.000000"
 preserveAspectRatio="xMidYMid meet">

<g transform="translate(0.000000,156.000000) scale(0.100000,-0.100000)"
fill="#000000" stroke="none">
<path d="M426 1188 c-3 -13 -6 -60 -6 -104 0 -53 -4 -85 -12 -92 -7 -5 -48
-13 -91 -17 -91 -8 -101 -29 -16 -32 30 -2 69 -5 87 -9 l33 -5 -3 -117 -3
-117 -84 -8 c-47 -4 -86 -9 -89 -11 -14 -15 18 -26 71 -26 108 0 104 4 112
-121 6 -103 15 -130 29 -93 3 9 6 49 6 89 0 41 4 85 10 99 9 25 13 26 82 26
40 0 78 -4 84 -8 7 -4 13 -51 16 -110 5 -100 17 -139 34 -111 4 7 10 59 12
116 l5 103 31 4 c17 3 55 7 85 10 53 5 69 11 59 21 -2 3 -42 8 -89 12 l-84 8
-3 118 c-1 64 -1 117 0 118 2 0 40 4 86 8 79 8 102 14 90 26 -3 3 -44 9 -92
12 l-86 6 0 88 c0 93 -13 150 -31 132 -5 -5 -13 -58 -16 -116 l-6 -107 -87 0
c-102 0 -100 -3 -100 122 0 77 -6 108 -20 108 -4 0 -10 -10 -14 -22z m224
-373 l0 -115 -90 0 -90 0 0 108 c0 60 3 112 7 115 3 4 44 7 90 7 l83 0 0 -115z"/>
<path d="M1143 1171 c-100 -53 -148 -90 -134 -104 8 -8 32 -1 87 26 60 30 79
35 90 26 19 -16 21 -628 2 -647 -7 -7 -31 -12 -54 -12 -120 0 -182 -31 -88
-44 60 -8 288 -8 348 0 94 13 38 44 -79 44 -28 0 -56 5 -63 12 -9 9 -12 106
-12 375 0 284 -3 363 -12 363 -7 0 -46 -18 -85 -39z"/>
<path d="M1799 1197 c-54 -15 -93 -42 -144 -98 -143 -158 -130 -463 25 -602
190 -171 457 -42 500 241 21 131 -20 285 -99 375 -64 72 -189 110 -282 84z
m193 -73 c55 -38 114 -124 135 -193 24 -82 15 -209 -21 -286 -48 -105 -149
-185 -234 -185 -51 0 -132 42 -178 92 -112 124 -126 333 -32 480 60 95 121
130 220 125 56 -2 74 -8 110 -33z"/>
<path d="M2539 1197 c-54 -15 -93 -42 -144 -98 -143 -158 -130 -463 25 -602
190 -171 457 -42 500 241 21 131 -20 285 -99 375 -64 72 -189 110 -282 84z
m167 -58 c52 -25 104 -81 141 -151 26 -49 28 -61 28 -173 0 -113 -2 -123 -29
-178 -33 -64 -108 -141 -161 -163 -112 -46 -244 27 -313 174 -24 51 -27 68
-27 167 1 97 4 117 27 166 70 153 210 219 334 158z"/>
<path d="M3059 1203 c-14 -3 -18 -28 -24 -161 -11 -227 -1 -602 17 -614 7 -5
63 -7 123 -5 148 6 208 29 291 111 85 86 107 146 102 281 -3 83 -9 110 -32
163 -37 81 -122 162 -203 192 -81 31 -220 48 -274 33z m261 -79 c126 -60 199
-165 208 -299 8 -131 -40 -233 -140 -299 -71 -46 -150 -68 -235 -64 l-68 3 -3
349 -2 348 88 -4 c71 -3 99 -10 152 -34z"/>
<path d="M10342 1193 c-10 -24 -9 -743 1 -767 17 -43 29 7 34 148 5 126 8 146
22 144 8 -2 70 -68 138 -148 118 -140 153 -171 153 -134 0 21 -24 53 -150 204
-111 132 -134 165 -126 179 4 5 59 37 124 71 121 63 184 110 148 110 -10 0
-74 -25 -143 -55 -69 -31 -133 -55 -142 -53 -14 3 -17 27 -22 158 -4 85 -7
156 -8 158 -4 9 -23 -1 -29 -15z"/>
<path d="M5464 1175 c-67 -33 -158 -130 -190 -200 -24 -53 -26 -64 -22 -178 4
-142 17 -176 101 -264 71 -76 139 -106 246 -111 71 -3 96 0 146 19 81 30 172
118 211 202 26 56 29 72 29 167 -1 86 -5 116 -24 162 -28 72 -102 154 -173
193 -48 27 -64 30 -163 33 -102 3 -114 1 -161 -23z m260 -31 c65 -22 148 -101
185 -176 28 -56 31 -70 31 -157 0 -80 -4 -104 -24 -146 -34 -73 -86 -127 -158
-166 -57 -31 -71 -34 -143 -34 -64 0 -89 5 -124 24 -62 33 -133 102 -167 163
-27 50 -29 60 -29 163 0 106 1 112 33 166 86 149 245 214 396 163z"/>
<path d="M6163 1185 c-17 -7 -36 -22 -42 -34 -7 -13 -11 -138 -11 -370 0 -356
13 -478 23 -215 3 92 9 150 17 159 8 10 31 15 69 15 93 0 161 11 161 26 0 8
-1 15 -2 15 -2 1 -55 4 -118 8 l-115 6 -3 140 c-3 162 0 179 33 201 70 46 186
37 229 -18 32 -42 60 -33 44 13 -16 46 -72 69 -173 68 -46 0 -94 -6 -112 -14z"/>
<path d="M6664 1181 c-70 -44 -104 -118 -85 -189 14 -51 72 -105 227 -210 147
-99 204 -157 204 -205 0 -71 -66 -117 -168 -117 -78 0 -141 23 -195 71 -49 43
-67 48 -67 21 0 -26 57 -78 115 -103 60 -27 172 -36 233 -20 104 28 148 121
103 214 -24 49 -77 94 -230 196 -190 128 -224 184 -160 265 38 48 94 69 166
63 76 -7 151 -38 189 -78 36 -38 59 -39 49 -2 -9 39 -20 49 -84 80 -48 24 -70
28 -161 31 -91 3 -109 0 -136 -17z"/>
<path d="M7296 1163 c-3 -21 -6 -71 -6 -110 l0 -73 -34 0 c-63 0 -126 -13
-126 -25 0 -15 45 -25 110 -25 l47 0 7 -257 c4 -142 9 -260 12 -262 2 -3 9 0
15 6 7 7 13 97 17 252 3 158 9 244 16 250 6 5 41 11 78 13 37 2 70 7 74 11 17
16 -19 30 -90 35 l-76 5 0 47 c0 139 -28 225 -44 133z"/>
<path d="M8652 818 c2 -288 6 -382 15 -385 7 -3 15 7 19 21 3 14 10 26 14 26
4 0 34 -14 66 -31 52 -27 67 -30 125 -27 113 6 188 76 210 195 43 234 -167
401 -351 279 -23 -15 -44 -24 -49 -22 -5 3 -12 78 -16 166 -5 128 -10 160 -21
160 -12 0 -14 -58 -12 -382z m271 71 c21 -5 54 -24 74 -42 100 -88 98 -241 -4
-338 -74 -70 -148 -71 -224 -2 -56 51 -79 100 -79 169 0 90 47 168 125 208 35
19 57 20 108 5z"/>
<path d="M4275 970 c-3 -5 15 -63 40 -129 25 -67 65 -175 90 -241 25 -66 45
-129 45 -141 0 -11 -18 -66 -40 -120 -42 -104 -51 -152 -26 -143 16 6 12 -3
153 334 145 345 177 430 164 443 -14 14 -33 -20 -116 -218 -42 -99 -80 -184
-85 -189 -19 -19 -40 19 -116 209 -73 180 -94 219 -109 195z"/>
<path d="M8195 906 c-4 -40 -6 -164 -4 -274 4 -178 9 -226 23 -211 3 2 7 81
11 174 8 243 10 252 48 276 26 16 46 19 106 17 71 -3 75 -5 105 -41 37 -44 46
-46 46 -9 0 18 -11 38 -31 58 -30 29 -32 29 -146 30 -108 1 -117 2 -124 21
-16 45 -27 32 -34 -41z"/>
<path d="M9226 917 c-3 -34 -2 -139 2 -234 7 -172 7 -172 36 -202 56 -58 191
-80 285 -47 30 11 48 13 55 6 5 -5 18 -10 27 -10 22 0 28 95 21 348 -4 140 -8
192 -17 192 -15 0 -25 -116 -25 -296 l0 -130 -32 -31 c-42 -40 -76 -53 -140
-53 -64 0 -133 32 -153 71 -11 21 -15 66 -15 181 0 178 -8 255 -25 262 -9 3
-14 -13 -19 -57z"/>
<path d="M3840 961 c-75 -24 -139 -82 -167 -150 -21 -49 -20 -166 1 -216 40
-95 136 -155 249 -155 73 0 118 14 172 55 19 15 38 24 43 21 5 -3 12 -24 15
-47 6 -44 13 -57 25 -45 9 10 15 405 7 474 -7 54 -19 60 -35 16 -9 -22 -40
-35 -40 -16 0 5 -23 22 -52 37 -40 22 -68 29 -122 31 -39 2 -82 0 -96 -5z
m192 -77 c23 -16 56 -49 73 -73 25 -36 30 -52 29 -99 -2 -206 -243 -298 -376
-143 -67 78 -69 179 -4 264 68 91 190 113 278 51z"/>
<path d="M4839 947 c-62 -42 -72 -96 -29 -157 11 -16 62 -62 113 -103 106 -85
157 -139 157 -166 0 -38 -37 -56 -114 -56 -63 0 -78 4 -112 28 -47 32 -54 33
-54 9 0 -44 80 -81 175 -82 70 0 123 23 143 64 23 46 1 87 -91 169 -141 124
-197 183 -197 205 0 11 14 32 31 46 26 22 40 26 92 26 40 0 78 -7 106 -20 69
-32 93 -23 49 17 -34 30 -82 43 -163 43 -58 0 -78 -4 -106 -23z"/>
<path d="M7715 957 c-122 -47 -182 -144 -173 -278 11 -148 111 -238 270 -239
57 0 76 5 134 35 38 20 73 34 80 31 7 -3 15 -23 19 -45 16 -96 25 -14 25 230
0 253 -6 298 -30 234 -5 -14 -14 -25 -19 -25 -5 0 -42 16 -82 35 -60 29 -84
35 -134 34 -33 0 -74 -6 -90 -12z m170 -51 c56 -25 110 -81 132 -135 36 -84
-25 -218 -122 -268 -34 -18 -126 -20 -167 -4 -40 15 -109 81 -125 118 -7 18
-13 59 -13 91 0 47 6 67 29 104 69 108 164 142 266 94z"/>
<path d="M9960 961 c-80 -26 -157 -100 -178 -169 -19 -61 -15 -180 7 -227 41
-88 128 -136 261 -143 85 -4 170 10 170 28 0 6 -49 10 -117 10 -103 0 -125 3
-169 24 -65 30 -110 85 -125 153 -26 116 31 225 144 273 47 20 63 22 160 17
106 -6 129 1 85 24 -27 15 -202 22 -238 10z"/>
<path d="M10885 957 c-47 -22 -70 -54 -69 -96 2 -53 23 -81 139 -176 160 -132
180 -164 128 -205 -40 -32 -134 -25 -192 13 -48 32 -61 34 -61 9 0 -85 266
-114 309 -34 6 12 11 37 11 57 0 32 -9 45 -68 103 -37 37 -102 98 -145 135
-88 78 -95 100 -46 141 26 22 40 26 97 26 49 0 76 -5 100 -20 18 -11 39 -20
48 -20 26 0 11 33 -25 54 -44 25 -181 33 -226 13z"/>
</g>
</svg>
