<?xml version="1.0" standalone="no"?>
<!DOCTYPE svg PUBLIC "-//W3C//DTD SVG 20010904//EN"
 "http://www.w3.org/TR/2001/REC-SVG-20010904/DTD/svg10.dtd">
<svg version="1.0" xmlns="http://www.w3.org/2000/svg"
 width="1118.000000pt" height="164.000000pt" viewBox="0 0 1118.000000 164.000000"
 preserveAspectRatio="xMidYMid meet">

<g transform="translate(0.000000,164.000000) scale(0.100000,-0.100000)"
fill="#000000" stroke="none">
<path d="M1434 1190 c-124 -29 -204 -167 -204 -350 0 -237 131 -398 293 -361
167 38 259 318 177 535 -47 124 -163 201 -266 176z m146 -107 c65 -66 90 -136
90 -253 0 -104 -24 -171 -85 -239 -70 -77 -153 -77 -220 1 -55 65 -75 131 -75
249 0 92 3 107 31 166 38 80 97 123 167 123 40 0 50 -5 92 -47z"/>
<path d="M2014 1190 c-124 -29 -204 -167 -204 -350 0 -237 131 -398 293 -361
167 38 259 318 177 535 -47 124 -163 201 -266 176z m122 -82 c45 -35 61 -58
89 -126 21 -51 25 -79 25 -156 0 -83 -3 -99 -30 -154 -75 -148 -183 -179 -277
-79 -52 56 -73 125 -73 244 0 97 2 110 31 170 24 51 41 71 77 94 58 37 116 39
158 7z"/>
<path d="M2448 1193 c-20 -3 -30 -12 -35 -31 -5 -15 -8 -175 -8 -355 0 -382
-7 -357 106 -357 163 0 333 61 407 145 68 77 77 105 77 235 0 108 -2 118 -28
162 -49 84 -142 145 -270 177 -76 20 -203 32 -249 24z m275 -121 c76 -35 150
-100 178 -154 48 -94 10 -225 -87 -302 -68 -53 -130 -76 -224 -83 -64 -5 -78
-3 -90 12 -12 15 -16 66 -18 271 -3 249 -3 253 19 275 19 19 29 21 89 17 47
-4 88 -15 133 -36z"/>
<path d="M3306 1179 c-34 -27 -82 -122 -188 -374 -126 -297 -136 -335 -89
-335 29 0 39 18 156 291 114 262 128 289 150 289 35 0 110 -141 180 -340 70
-197 90 -240 114 -240 29 0 51 36 41 68 -17 60 -175 433 -216 512 -71 136
-103 164 -148 129z"/>
<path d="M4123 1193 c-7 -3 -36 -37 -64 -76 -153 -212 -167 -217 -254 -94 -93
131 -125 167 -146 167 -23 0 -33 -21 -25 -53 3 -12 44 -74 91 -137 98 -133
129 -188 115 -206 -6 -6 -36 -14 -67 -18 -62 -7 -83 -19 -83 -47 0 -13 10 -20
35 -24 19 -3 50 -7 69 -10 19 -3 39 -12 46 -19 6 -8 16 -59 21 -113 11 -105
19 -124 47 -107 13 8 19 35 27 111 6 56 16 107 24 117 9 10 29 16 57 16 97 0
131 47 44 63 -94 17 -120 27 -120 46 0 11 29 59 65 108 104 142 165 234 165
248 0 17 -30 34 -47 28z"/>
<path d="M6593 1193 c-45 -4 -67 -22 -57 -46 6 -18 25 -23 111 -33 104 -11 97
12 105 -335 8 -313 12 -338 50 -324 23 9 28 77 28 371 0 223 2 263 15 274 9 7
52 16 96 20 82 7 117 24 106 53 -3 9 -30 16 -83 20 -78 7 -294 7 -371 0z"/>
<path d="M7225 1176 c-13 -13 -41 -59 -63 -102 -47 -94 -242 -559 -242 -578 0
-8 6 -19 14 -25 31 -26 64 28 176 289 61 140 120 264 130 275 16 15 24 17 38
9 26 -16 113 -195 166 -345 58 -161 84 -219 103 -226 16 -6 53 24 53 44 0 28
-154 402 -213 516 -54 106 -101 167 -128 167 -6 0 -21 -11 -34 -24z"/>
<path d="M7740 1194 c-14 -3 -38 -10 -54 -16 l-29 -12 5 -418 c4 -350 7 -421
19 -434 13 -12 18 -12 33 -1 16 12 19 35 23 208 3 107 10 200 16 207 6 7 34
12 72 12 l63 0 117 -125 c126 -134 143 -148 165 -135 20 13 6 38 -99 171 -50
64 -91 123 -91 131 0 8 15 32 34 54 71 84 89 168 49 236 -25 42 -94 95 -141
107 -47 12 -150 20 -182 15z m165 -83 c22 -10 55 -32 73 -49 28 -26 32 -37 32
-80 0 -43 -5 -55 -41 -96 -56 -63 -84 -76 -169 -76 l-70 0 0 140 0 140 33 20
c40 25 90 25 142 1z"/>
<path d="M9823 1192 c-7 -4 -16 -26 -21 -47 l-8 -40 -69 -7 c-129 -14 -233
-69 -266 -142 -26 -58 -26 -192 0 -245 43 -83 108 -121 268 -156 78 -18 82
-21 98 -75 8 -27 17 -36 36 -38 22 -3 27 2 32 25 9 48 -6 104 -33 124 -14 10
-59 26 -100 34 -164 34 -234 94 -234 201 0 106 78 172 234 200 46 8 89 19 97
25 20 17 18 135 -3 143 -19 7 -16 7 -31 -2z"/>
<path d="M9989 1189 c-11 -7 -15 -74 -17 -341 -4 -347 0 -388 36 -388 23 0 32
40 32 151 0 56 4 80 15 89 18 15 16 17 157 -117 54 -51 111 -99 127 -108 34
-17 61 -11 61 13 0 9 -66 83 -146 163 -126 126 -146 150 -140 170 3 13 62 91
131 174 120 142 142 181 109 192 -5 2 -72 -60 -148 -137 -76 -77 -142 -138
-147 -135 -5 4 -9 50 -9 103 0 126 -8 169 -30 175 -10 2 -24 1 -31 -4z"/>
<path d="M558 1162 c-13 -15 -34 -48 -47 -74 l-25 -46 -70 -8 c-67 -9 -71 -10
-74 -36 -3 -25 0 -28 37 -34 50 -8 56 -24 32 -80 -20 -44 -23 -46 -103 -59
-32 -5 -38 -10 -38 -29 0 -18 8 -27 31 -35 29 -10 31 -13 24 -43 -13 -56 -11
-80 8 -92 21 -12 22 -11 80 79 l32 50 55 0 c61 0 57 8 43 -87 -4 -29 -1 -39
11 -44 22 -9 53 20 82 77 26 53 37 59 102 59 58 0 75 10 70 41 -2 20 -10 25
-43 29 -51 6 -58 35 -21 91 21 31 33 39 59 40 59 2 82 13 82 39 0 19 -7 26
-34 34 -32 9 -33 11 -26 45 4 20 8 50 9 66 1 26 -3 30 -23 30 -20 0 -31 -12
-60 -67 l-36 -68 -62 0 c-70 0 -72 2 -50 66 24 70 -4 104 -45 56z m71 -198
c22 -5 31 -12 31 -26 0 -27 -36 -94 -55 -102 -26 -10 -113 -7 -120 4 -8 12 26
90 49 113 18 18 44 21 95 11z"/>
<path d="M1069 1181 c-41 -13 -72 -31 -106 -64 -63 -60 -26 -90 57 -47 46 23
66 25 73 7 3 -8 8 -149 12 -315 7 -279 9 -302 25 -302 16 0 19 16 25 137 4 76
5 236 3 356 -6 251 -6 252 -89 228z"/>
<path d="M4378 1180 c-50 -15 -109 -54 -128 -86 -24 -38 -26 -104 -4 -150 16
-33 82 -101 119 -121 16 -10 17 -14 6 -42 -15 -35 -7 -81 14 -81 8 0 30 14 49
31 41 35 59 33 112 -13 40 -36 46 -81 14 -121 -38 -48 -95 -55 -257 -31 -34 5
-44 3 -49 -10 -16 -43 74 -90 171 -90 154 1 235 61 235 174 0 59 -21 99 -79
152 -45 42 -51 51 -45 75 4 16 7 30 6 33 -1 50 -24 59 -64 25 -41 -35 -70 -32
-118 13 -34 33 -40 45 -40 78 1 42 11 60 50 87 30 21 125 23 190 4 78 -23 106
3 49 45 -45 34 -163 49 -231 28z"/>
<path d="M5626 1177 c-17 -12 -19 -36 -23 -268 -2 -140 -1 -294 4 -344 8 -87
9 -90 34 -93 25 -3 26 -1 33 59 3 34 6 92 6 130 0 120 -6 116 174 124 165 8
193 17 157 49 -15 13 -48 18 -170 23 -148 6 -152 7 -157 29 -10 40 0 202 14
216 8 8 64 15 159 20 81 4 153 10 161 13 7 3 12 15 10 27 -3 23 -4 23 -193 26
-147 2 -195 -1 -209 -11z"/>
<path d="M6218 1180 c-173 -52 -199 -205 -53 -320 22 -17 81 -56 132 -86 50
-30 99 -64 107 -76 26 -37 20 -83 -14 -112 -48 -40 -85 -43 -247 -20 -34 5
-44 3 -49 -10 -8 -21 11 -43 60 -69 94 -49 279 -12 326 65 22 37 27 125 9 161
-23 44 -76 90 -167 144 -123 72 -162 112 -162 161 0 41 11 60 50 86 30 20 126
21 190 3 78 -23 106 3 49 45 -45 34 -163 49 -231 28z"/>
<path d="M8287 1184 c-10 -3 -22 -17 -28 -30 -10 -27 -13 -614 -3 -650 4 -16
16 -23 43 -28 58 -9 226 10 269 31 70 35 106 125 82 213 -11 41 -39 76 -91
111 l-24 16 30 43 c24 34 29 52 28 93 -1 29 -6 64 -11 78 -14 36 -60 87 -93
105 -30 15 -169 27 -202 18z m159 -80 c45 -22 84 -69 84 -102 0 -37 -33 -88
-72 -112 -37 -22 -117 -27 -136 -8 -15 15 -16 191 -2 219 14 24 78 26 126 3z
m82 -334 c39 -24 67 -78 59 -112 -17 -66 -76 -106 -171 -115 -101 -9 -106 -4
-106 126 0 59 3 111 7 114 3 4 45 7 92 7 68 0 93 -4 119 -20z"/>
<path d="M8756 1181 c-12 -19 -18 -311 -8 -417 11 -121 23 -155 77 -209 56
-55 109 -78 197 -83 146 -9 246 36 293 132 27 54 27 59 32 299 6 262 2 291
-40 285 -20 -3 -22 -10 -28 -103 -4 -55 -7 -166 -8 -247 l-1 -146 -33 -44
c-76 -99 -184 -131 -278 -83 -42 22 -89 65 -114 104 -21 34 -23 49 -27 263 -3
166 -8 231 -17 242 -15 18 -37 21 -45 7z"/>
<path d="M10553 1176 c-57 -18 -98 -49 -117 -90 -34 -72 -14 -142 62 -215 56
-53 57 -55 57 -110 0 -49 3 -56 20 -59 12 -2 32 9 50 28 16 16 37 30 46 30 10
0 36 -17 59 -38 46 -45 52 -83 20 -125 -38 -47 -96 -55 -257 -31 -37 5 -42 3
-48 -17 -15 -47 61 -79 185 -79 88 0 142 21 183 69 69 83 49 190 -50 261 l-43
31 6 54 c8 68 -9 79 -59 41 -47 -36 -72 -33 -118 13 -32 32 -39 46 -39 78 0
42 11 60 50 87 31 21 132 21 190 1 72 -26 107 2 55 44 -49 38 -172 51 -252 27z"/>
<path d="M4965 1152 c-73 -35 -136 -102 -174 -183 -36 -74 -46 -87 -88 -104
-18 -8 -33 -19 -33 -25 0 -6 20 -23 45 -38 32 -19 48 -37 56 -62 33 -100 109
-194 194 -238 42 -22 63 -26 135 -26 71 -1 94 4 142 26 105 49 166 122 227
271 7 17 25 34 46 43 46 19 47 48 2 63 -27 9 -42 25 -73 82 -46 86 -116 159
-181 190 -38 18 -69 24 -143 27 -88 3 -99 1 -155 -26z m270 -63 c24 -11 62
-40 84 -64 63 -69 69 -123 14 -137 -46 -12 -49 -25 -10 -42 50 -20 68 -50 55
-89 -25 -73 -96 -150 -175 -191 -48 -24 -158 -22 -203 5 -50 30 -89 68 -121
118 -40 61 -38 87 6 105 19 8 35 17 35 20 0 3 -21 14 -46 26 -44 19 -46 22
-40 50 7 39 55 109 98 145 86 73 214 96 303 54z"/>
</g>
</svg>
